<svg width="1600" height="800" viewBox="0 0 1600 800" fill="none" xmlns="http://www.w3.org/2000/svg">
  <defs>
    <linearGradient id="cardWhite" x1="0" y1="0" x2="1" y2="1">
      <stop offset="0%" stop-color="#FFFFFF"/>
      <stop offset="100%" stop-color="#E6E7EB"/>
    </linearGradient>
    <linearGradient id="cardOrange" x1="0" y1="0" x2="1" y2="1">
      <stop offset="0%" stop-color="#FF9A57"/>
      <stop offset="100%" stop-color="#FF5A36"/>
    </linearGradient>
    <linearGradient id="shadowFade" x1="0" y1="0" x2="0" y2="1">
      <stop offset="0%" stop-color="#000000" stop-opacity="0.12"/>
      <stop offset="100%" stop-color="#000000" stop-opacity="0"/>
    </linearGradient>
    <filter id="softShadow" x="-20%" y="-20%" width="140%" height="160%">
      <feDropShadow dx="0" dy="16" stdDeviation="18" flood-color="#111111" flood-opacity="0.16"/>
    </filter>
  </defs>

  <rect width="1600" height="800" fill="#F5F5F3"/>

  <g opacity="0.5">
    <path d="M655 -40L492 840" stroke="#D8D7D3" stroke-width="3"/>
    <path d="M928 -80L770 840" stroke="#DEDDD8" stroke-width="3"/>
    <path d="M1208 -30L1045 840" stroke="#D8D7D3" stroke-width="3"/>
  </g>

  <g transform="translate(86 82)">
    <path d="M0 18H48L106 114L56 192L0 96V18Z" fill="#111114"/>
    <path d="M58 0H138L98 58L58 0Z" fill="#FF5A36"/>
    <text x="160" y="82" font-family="Roobert, Inter, Arial, sans-serif" font-size="90" font-weight="500" letter-spacing="-3" fill="#111114">venture</text>
    <text x="160" y="168" font-family="Roobert, Inter, Arial, sans-serif" font-size="90" font-weight="500" letter-spacing="-3" fill="#111114">verse</text>
    <circle cx="478" cy="156" r="10" fill="#FF5A36"/>
  </g>

  <g transform="translate(86 404)">
    <text x="0" y="0" font-family="Roobert, Inter, Arial, sans-serif" font-size="84" font-weight="300" letter-spacing="-3" fill="#111114">AI-powered OS</text>
    <text x="0" y="110" font-family="Roobert, Inter, Arial, sans-serif" font-size="84" font-weight="300" letter-spacing="-3" fill="#111114">for</text>
    <text x="116" y="110" font-family="Roobert, Inter, Arial, sans-serif" font-size="84" font-weight="300" letter-spacing="-3" fill="#FF5A36">Founders</text>
  </g>

  <g filter="url(#softShadow)" transform="translate(1036 410)">
    <path d="M0 64L257 0L446 86L188 150L0 64Z" fill="#FFFFFF"/>
    <path d="M188 150L446 86V262L188 326V150Z" fill="#D9D9D7"/>
    <path d="M0 64L188 150V326L0 240V64Z" fill="url(#cardWhite)"/>
    <path d="M88 92L286 46L364 82L168 128L88 92Z" fill="#111114"/>
    <path d="M150 32L237 13L282 34L194 54L150 32Z" fill="#FF5A36"/>
  </g>

  <g filter="url(#softShadow)" transform="translate(1260 122)">
    <path d="M0 54L168 0L304 62L136 116L0 54Z" fill="#FFA06A"/>
    <path d="M136 116L304 62V191L136 245V116Z" fill="#E86D25"/>
    <path d="M0 54L136 116V245L0 183V54Z" fill="url(#cardOrange)"/>
    <path d="M90 76C90 52 109 35 136 35C163 35 182 52 182 76C182 95 170 111 151 118L185 149" stroke="#C84E17" stroke-width="10" stroke-linecap="round" stroke-linejoin="round"/>
    <path d="M136 58V93" stroke="#C84E17" stroke-width="10" stroke-linecap="round"/>
    <path d="M117 75H155" stroke="#C84E17" stroke-width="10" stroke-linecap="round"/>
  </g>

  <rect x="0" y="676" width="1600" height="124" fill="url(#shadowFade)" opacity="0.2"/>
</svg>
